<mxfile host="app.diagrams.net" modified="2023-10-18T09:19:16.423Z" agent="Mozilla/5.0 (Windows NT 10.0; Win64; x64) AppleWebKit/537.36 (KHTML, like Gecko) Chrome/117.0.0.0 Safari/537.36" version="21.7.5" etag="ouSOnhfIw0Ylf2FzLZFS" type="github">
  <diagram name="Page-1" id="OpaP5gx9GJwp2l1EP_2j">
    <mxGraphModel>
      <root>
        <mxCell id="0" />
        <mxCell id="1" parent="0" />
      </root>
    </mxGraphModel>
  </diagram>
</mxfile>
